Patient4_TMGait_0pt3_01_right_04_GRF.mot
version=1
nRows=58
nColumns=19
inDegrees=no
endheader
time	F1x	F1y	F1z	M1x	M1y	M1z	F2x	F2y	F2z	M2x	M2y	M2z	EC1x	EC1y	EC1z	EC2x	EC2y	EC2z
5.89	0.63553	821.0868	47.2271	-308.2281	-45.4174	851.6254	-14.1185	0.09188	-3.05	1.8976	6.2177	-3.8463	-0.0592	0.0182	-0.0073	-0.0462	0.0165	0.9585
5.9089	0.94956	825.3532	47.5555	-309.4623	-45.6586	854.6331	-9.6997	0.74474	-2.1197	1.5128	4.3725	-1.8672	-0.0592	0.0182	-0.0073	-0.0462	0.0165	0.9585
5.9279	1.3307	829.2276	48.1297	-310.4273	-46.038	856.869	-5.8669	1.2025	-1.2984	1.156	2.7308	-0.26713	-0.0592	0.0182	-0.0073	-0.0462	0.0165	0.9585
5.9468	1.8124	831.7541	48.8647	-310.7703	-46.4517	857.437	-2.8948	1.4989	-0.65671	0.86969	1.432	0.91669	-0.0592	0.0182	-0.0073	-0.0462	0.0165	0.9585
5.9657	2.4189	832.0132	49.6323	-310.1596	-46.7754	855.5077	-0.80908	1.6754	-0.20667	0.66622	0.50236	1.7182	-0.0592	0.0182	-0.0073	-0.0462	0.0165	0.9585
5.9846	3.1542	829.2774	50.3086	-308.3448	-46.9056	850.444	0.50214	1.7645	0.071365	0.53753	-0.095097	2.1983	-0.0592	0.0182	-0.0073	-0.0462	0.0165	0.9585
6.0036	4.0181	823.172	50.7842	-305.2199	-46.7542	841.9317	1.2052	1.7787	0.21279	0.46271	-0.42385	2.4218	-0.0592	0.0182	-0.0073	-0.0462	0.0165	0.9585
6.0225	5.0145	813.7791	50.9736	-300.8563	-46.2549	830.0723	1.4703	1.7102	0.25829	0.41332	-0.55546	2.4385	-0.0592	0.0182	-0.0073	-0.0462	0.0165	0.9585
6.0414	6.1652	801.651	50.8374	-295.5029	-45.3763	815.3964	1.447	1.5318	0.24467	0.35618	-0.55632	2.261	-0.0592	0.0182	-0.0073	-0.0462	0.0165	0.9585
6.0604	7.5168	787.7673	50.3851	-289.5636	-44.1184	798.8341	1.2573	1.1972	0.20418	0.25526	-0.48387	1.8682	-0.0592	0.0182	-0.0073	-0.0462	0.0165	0.9585
6.0793	9.1188	773.3906	49.6676	-283.5364	-42.5151	781.5871	0.99369	0.64703	0.16116	0.075259	-0.38268	1.2134	-0.0592	0.0182	-0.0073	-0.0462	0.0165	0.9585
6.0982	11.0133	759.8653	48.7706	-277.9339	-40.635	764.9317	0.72723	-0.17896	0.12872	-0.2133	-0.28526	0.24299	-0.0592	0.0182	-0.0073	-0.0462	0.0165	0.9585
6.1171	13.2224	748.4136	47.8054	-273.2107	-38.5763	750.0333	0.51531	-1.3216	0.11532	-0.62836	-0.22109	-1.0807	-0.0592	0.0182	-0.0073	-0.0462	0.0165	0.9585
6.1361	15.7409	739.9592	46.8904	-269.7025	-36.4525	737.778	0.41062	-2.7704	0.12788	-1.166	-0.21945	-2.7426	-0.0592	0.0182	-0.0073	-0.0462	0.0165	0.9585
6.155	18.5558	735.0027	46.1338	-267.5814	-34.3664	728.6365	0.46537	-4.4181	0.17102	-1.7836	-0.30645	-4.6236	-0.0592	0.0182	-0.0073	-0.0462	0.0165	0.9585
6.1739	21.662	733.5543	45.625	-266.8366	-32.4004	722.6035	0.73603	-6.0087	0.2486	-2.3808	-0.50569	-6.4406	-0.0592	0.0182	-0.0073	-0.0462	0.0165	0.9585
6.1929	25.0588	735.1083	45.4314	-267.2687	-30.6186	719.1922	1.2822	-7.0831	0.36238	-2.7805	-0.83717	-7.679	-0.0592	0.0182	-0.0073	-0.0462	0.0165	0.9585
6.2118	28.7371	738.6848	45.6	-268.499	-29.0721	717.4771	2.1575	-6.9228	0.50736	-2.7066	-1.3129	-7.5261	-0.0592	0.0182	-0.0073	-0.0462	0.0165	0.9585
6.2307	32.6578	742.9605	46.1423	-270.0189	-27.7925	716.2389	3.3897	-4.5142	0.67225	-1.7723	-1.9282	-4.8233	-0.0592	0.0182	-0.0073	-0.0462	0.0165	0.9585
6.2496	36.7254	746.4361	47.0221	-271.2528	-26.7878	714.1434	4.9467	1.4418	0.82843	0.51676	-2.6354	1.9239	-0.0592	0.0182	-0.0073	-0.0462	0.0165	0.9585
6.2686	40.7817	747.5951	48.1559	-271.6213	-26.045	709.8988	6.6951	12.4323	0.92726	4.7241	-3.3269	14.4255	-0.0592	0.0182	-0.0073	-0.0462	0.0165	0.9585
6.2875	44.6122	745.051	49.4055	-270.5999	-25.5199	702.3922	8.3438	29.8961	0.89721	11.393	-3.8095	34.3413	-0.0592	0.0182	-0.0073	-0.0462	0.0165	0.9585
6.3064	47.9597	737.607	50.5579	-267.7412	-25.1159	690.729	9.3642	54.8326	0.64056	20.895	-3.7738	62.8403	-0.0592	0.0182	-0.0073	-0.0462	0.0165	0.9585
6.3254	50.5707	724.2287	51.3562	-262.6604	-24.7025	674.1607	8.8827	87.3038	0.021791	33.2391	-2.7457	100.0291	-0.0592	0.0182	-0.0073	-0.0462	0.0165	0.9585
6.3443	52.2147	704.0424	51.5524	-255.0438	-24.1525	652.0511	6.2141	126.1903	-1.1086	47.9754	-0.31426	144.6626	-0.0592	0.0182	-0.0073	-0.0462	0.0165	0.9585
6.3632	52.7153	676.4297	50.9287	-244.6983	-23.3461	623.9393	1.6377	169.3048	-2.8995	64.2327	3.5738	194.2086	-0.0592	0.0182	-0.0073	-0.0462	0.0165	0.9585
6.3821	52.0354	641.1941	49.3466	-231.6012	-22.1849	589.6438	-3.9188	213.5779	-5.4786	80.813	8.6963	245.0193	-0.0592	0.0182	-0.0073	-0.0462	0.0165	0.9585
6.4011	50.2893	598.7582	46.8176	-215.954	-20.6464	549.4502	-9.4249	256.5822	-8.685	96.7841	14.4602	294.1579	-0.0592	0.0182	-0.0073	-0.0462	0.0165	0.9585
6.42	47.6495	550.2256	43.4805	-198.1926	-18.7931	504.2292	-14.2218	297.6175	-12.2684	111.876	20.3282	340.7207	-0.0592	0.0182	-0.0073	-0.0462	0.0165	0.9585
6.4389	44.3078	497.2391	39.5027	-178.9292	-16.6976	455.3447	-17.9682	337.1323	-16.0751	126.261	26.0145	385.1622	-0.0592	0.0182	-0.0073	-0.0462	0.0165	0.9585
6.4579	40.4438	441.8098	35.0562	-158.8881	-14.4301	404.5142	-20.5466	375.8132	-20.0212	140.2131	31.4071	428.252	-0.0592	0.0182	-0.0073	-0.0462	0.0165	0.9585
6.4768	36.1945	386.1524	30.3583	-138.8475	-12.1074	353.6719	-22.0452	414.0491	-24.0389	153.9099	36.491	470.4733	-0.0592	0.0182	-0.0073	-0.0462	0.0165	0.9585
6.4957	31.6873	332.5139	25.6853	-119.5861	-9.901	304.8053	-22.733	451.7654	-28.0205	167.3729	41.2688	511.8261	-0.0592	0.0182	-0.0073	-0.0462	0.0165	0.9585
6.5146	27.0775	282.9648	21.315	-101.8163	-7.9777	259.7526	-22.9886	488.6035	-31.7825	180.5337	45.6905	552.0156	-0.0592	0.0182	-0.0073	-0.0462	0.0165	0.9585
6.5336	22.5532	239.1462	17.4673	-86.1016	-6.4514	219.9679	-23.2038	524.1947	-35.0632	193.3246	49.6143	590.7392	-0.0592	0.0182	-0.0073	-0.0462	0.0165	0.9585
6.5525	18.3119	201.9913	14.2792	-72.7589	-5.3707	186.255	-23.6594	558.2274	-37.5943	205.684	52.8412	627.7265	-0.0592	0.0182	-0.0073	-0.0462	0.0165	0.9585
6.5714	14.5008	171.5001	11.7932	-61.7806	-4.7233	158.5634	-24.456	590.262	-39.2453	217.4687	55.2429	662.5123	-0.0592	0.0182	-0.0073	-0.0462	0.0165	0.9585
6.5904	11.1642	146.7529	9.9606	-52.8367	-4.4548	136.014	-25.5142	619.6683	-40.0953	228.42	56.8423	694.3759	-0.0592	0.0182	-0.0073	-0.0462	0.0165	0.9585
6.6093	8.2621	126.1956	8.6631	-45.376	-4.4797	117.1711	-26.6438	645.8227	-40.3867	238.2439	57.7992	722.5756	-0.0592	0.0182	-0.0073	-0.0462	0.0165	0.9585
6.6282	5.7161	108.127	7.7359	-38.8011	-4.684	100.49	-27.6378	668.4022	-40.3912	246.7398	58.3038	746.6948	-0.0592	0.0182	-0.0073	-0.0462	0.0165	0.9585
6.6471	3.4294	91.1936	6.9954	-32.6424	-4.9396	84.7686	-28.3396	687.4597	-40.3252	253.847	58.5153	766.7609	-0.0592	0.0182	-0.0073	-0.0462	0.0165	0.9585
6.6661	1.3334	74.6877	6.2837	-26.6607	-5.1296	69.4074	-28.6692	703.28	-40.3594	259.6055	58.5867	783.1018	-0.0592	0.0182	-0.0073	-0.0462	0.0165	0.9585
6.685	-0.53584	58.5876	5.5	-20.8562	-5.1498	54.4296	-28.6376	716.2598	-40.6321	264.1223	58.6841	796.205	-0.0592	0.0182	-0.0073	-0.0462	0.0165	0.9585
6.7039	-2.0122	43.3752	4.6052	-15.4004	-4.907	40.3026	-28.3444	726.8042	-41.2272	267.5355	58.9558	806.5907	-0.0592	0.0182	-0.0073	-0.0462	0.0165	0.9585
6.7229	-2.8807	29.7624	3.6193	-10.5441	-4.3472	27.6926	-27.962	735.2443	-42.1472	269.9868	59.4948	814.6993	-0.0592	0.0182	-0.0073	-0.0462	0.0165	0.9585
6.7418	-3.0404	18.4283	2.6179	-6.5207	-3.5089	17.218	-27.6768	741.8842	-43.316	271.637	60.3164	820.9111	-0.0592	0.0182	-0.0073	-0.0462	0.0165	0.9585
6.7607	-2.6955	9.8044	1.7179	-3.4726	-2.5754	9.2683	-27.6319	747.1556	-44.5982	272.7141	61.3501	825.6966	-0.0592	0.0182	-0.0073	-0.0462	0.0165	0.9585
6.7796	-2.1253	3.8546	1.0002	-1.3785	-1.7228	3.8048	-27.8885	751.7897	-45.838	273.5637	62.4611	829.7862	-0.0592	0.0182	-0.0073	-0.0462	0.0165	0.9585
6.7986	-1.5123	0.19129	0.48247	-0.095221	-1.0331	0.45482	-28.4005	756.8166	-46.9167	274.6307	63.5067	834.1698	-0.0592	0.0182	-0.0073	-0.0462	0.0165	0.9585
6.8175	-0.96041	-1.716	0.14619	0.56784	-0.52661	-1.28	-29.0339	763.2736	-47.7859	276.3418	64.3807	839.8061	-0.0592	0.0182	-0.0073	-0.0462	0.0165	0.9585
6.8364	-0.51445	-2.4025	-0.043679	0.80118	-0.18943	-1.8905	-29.6056	771.8581	-48.4437	278.9765	65.0053	847.2834	-0.0592	0.0182	-0.0073	-0.0462	0.0165	0.9585
6.8554	-0.18486	-2.3348	-0.12595	0.77053	0.0085675	-1.8096	-29.9184	782.6921	-48.9183	282.5803	65.328	856.6074	-0.0592	0.0182	-0.0073	-0.0462	0.0165	0.9585
6.8743	0.034471	-1.8833	-0.14013	0.60811	0.10188	-1.3838	-29.8134	795.2394	-49.2574	286.9379	65.3295	867.1477	-0.0592	0.0182	-0.0073	-0.0462	0.0165	0.9585
6.8932	0.15643	-1.3256	-0.12003	0.41448	0.12248	-0.87425	-29.2077	808.3594	-49.4961	291.6016	65.009	877.7108	-0.0592	0.0182	-0.0073	-0.0462	0.0165	0.9585
6.9121	0.19913	-0.86043	-0.089552	0.26192	0.098872	-0.47454	-28.0775	820.4719	-49.6346	295.9612	64.3541	886.6929	-0.0592	0.0182	-0.0073	-0.0462	0.0165	0.9585
6.9311	0.18198	-0.62746	-0.060972	0.19931	0.051123	-0.32439	-26.4081	829.8105	-49.642	299.347	63.3245	892.3194	-0.0592	0.0182	-0.0073	-0.0462	0.0165	0.9585
6.95	0.1228	-0.72218	-0.038299	0.25972	-0.0070141	-0.52382	-24.1751	834.7595	-49.4713	301.1548	61.8607	892.9792	-0.0592	0.0182	-0.0073	-0.0462	0.0165	0.9585
6.9689	0.040786	-1.1991	-0.024249	0.46382	-0.063588	-1.1383	-21.3613	834.2261	-49.0778	300.9788	59.9105	887.6078	-0.0592	0.0182	-0.0073	-0.0462	0.0165	0.9585
